<svg id="visual" viewBox="0 0 540 960" width="540" height="960" xmlns="http://www.w3.org/2000/svg" xmlns:xlink="http://www.w3.org/1999/xlink" version="1.1"><rect x="0" y="0" width="540" height="960" fill="#001220"></rect><defs><linearGradient id="grad1_0" x1="0%" y1="0%" x2="100%" y2="100%"><stop offset="30%" stop-color="#15539f" stop-opacity="1"></stop><stop offset="70%" stop-color="#15539f" stop-opacity="1"></stop></linearGradient></defs><defs><linearGradient id="grad1_1" x1="0%" y1="0%" x2="100%" y2="100%"><stop offset="30%" stop-color="#15539f" stop-opacity="1"></stop><stop offset="70%" stop-color="#001220" stop-opacity="1"></stop></linearGradient></defs><defs><linearGradient id="grad2_0" x1="0%" y1="0%" x2="100%" y2="100%"><stop offset="30%" stop-color="#15539f" stop-opacity="1"></stop><stop offset="70%" stop-color="#15539f" stop-opacity="1"></stop></linearGradient></defs><defs><linearGradient id="grad2_1" x1="0%" y1="0%" x2="100%" y2="100%"><stop offset="30%" stop-color="#001220" stop-opacity="1"></stop><stop offset="70%" stop-color="#15539f" stop-opacity="1"></stop></linearGradient></defs><g transform="translate(540, 0)"><path d="M0 297C-15.9 297 -31.8 297.1 -45.2 285.4C-58.6 273.8 -69.5 250.5 -73.9 227.3C-78.2 204.1 -76.2 181 -97.2 190.7C-118.2 200.4 -162.2 242.9 -174.6 240.3C-186.9 237.6 -167.5 189.7 -169.7 169.7C-171.9 149.7 -195.8 157.5 -211.2 153.4C-226.5 149.3 -233.4 133.3 -227.2 115.8C-221 98.2 -201.6 79.2 -208.3 67.7C-214.9 56.2 -247.6 52.3 -266.7 42.2C-285.8 32.2 -291.4 16.1 -297 0L0 0Z" fill="#00335c"></path><path d="M0 148.5C-8 148.5 -15.9 148.5 -22.6 142.7C-29.3 136.9 -34.7 125.3 -36.9 113.7C-39.1 102 -38.1 90.5 -48.6 95.3C-59.1 100.2 -81.1 121.5 -87.3 120.1C-93.5 118.8 -83.7 94.9 -84.9 84.9C-86 74.8 -97.9 78.8 -105.6 76.7C-113.3 74.7 -116.7 66.7 -113.6 57.9C-110.5 49.1 -100.8 39.6 -104.1 33.8C-107.5 28.1 -123.8 26.1 -133.3 21.1C-142.9 16.1 -145.7 8.1 -148.5 0L0 0Z" fill="#15539f"></path></g><g transform="translate(0, 960)"><path d="M0 -297C10.7 -263.3 21.4 -229.6 36 -227.2C50.6 -224.7 69.1 -253.5 84.1 -258.7C99 -263.9 110.2 -245.5 115.3 -226.3C120.4 -207.1 119.4 -187.1 135.2 -186.1C151 -185.1 183.7 -203 204.4 -204.4C225 -205.7 233.6 -190.4 240.3 -174.6C246.9 -158.8 251.7 -142.5 240.6 -122.6C229.5 -102.7 202.6 -79.1 201.6 -65.5C200.7 -51.9 225.7 -48.2 245.9 -39C266.2 -29.7 281.6 -14.8 297 0L0 0Z" fill="#00335c"></path><path d="M0 -148.5C5.3 -131.7 10.7 -114.8 18 -113.6C25.3 -112.4 34.6 -126.7 42 -129.3C49.5 -131.9 55.1 -122.8 57.7 -113.2C60.2 -103.6 59.7 -93.5 67.6 -93C75.5 -92.5 91.9 -101.5 102.2 -102.2C112.5 -102.8 116.8 -95.2 120.1 -87.3C123.5 -79.4 125.8 -71.2 120.3 -61.3C114.7 -51.3 101.3 -39.6 100.8 -32.8C100.3 -25.9 112.9 -24.1 123 -19.5C133.1 -14.8 140.8 -7.4 148.5 0L0 0Z" fill="#15539f"></path></g></svg>