<svg id="visual" viewBox="0 0 900 600" width="900" height="600" xmlns="http://www.w3.org/2000/svg" xmlns:xlink="http://www.w3.org/1999/xlink" version="1.1"><rect x="0" y="0" width="900" height="600" fill="#001220"></rect><defs><linearGradient id="grad1_0" x1="33.3%" y1="0%" x2="100%" y2="100%"><stop offset="20%" stop-color="#001220" stop-opacity="1"></stop><stop offset="80%" stop-color="#001220" stop-opacity="1"></stop></linearGradient></defs><defs><linearGradient id="grad2_0" x1="0%" y1="0%" x2="66.7%" y2="100%"><stop offset="20%" stop-color="#001220" stop-opacity="1"></stop><stop offset="80%" stop-color="#001220" stop-opacity="1"></stop></linearGradient></defs><g transform="translate(900, 0)"><path d="M0 486.7C-49.5 442.9 -99.1 399.1 -156.9 378.8C-214.7 358.5 -280.8 361.6 -333.8 333.8C-386.7 305.9 -426.4 247.1 -449.7 186.3C-473 125.5 -479.9 62.7 -486.7 0L0 0Z" fill="#15539f"></path></g><g transform="translate(0, 600)"><path d="M0 -486.7C69.8 -487.1 139.5 -487.4 186.3 -449.7C233 -411.9 256.8 -336.1 282.1 -282.1C307.4 -228.2 334.3 -196.1 368.6 -152.7C403 -109.3 444.9 -54.7 486.7 0L0 0Z" fill="#15539f"></path></g></svg>